<mxfile host="app.diagrams.net" modified="2024-06-13T19:32:08.770Z" agent="Mozilla/5.0 (Windows NT 10.0; Win64; x64) AppleWebKit/537.36 (KHTML, like Gecko) Chrome/123.0.0.0 Safari/537.36 OPR/109.0.0.0" etag="_MzlXxIWPy1RiFEI5vae" version="24.5.4" type="device">
  <diagram name="Página-1" id="E35-NctK-QVKj6qJqTT_">
    <mxGraphModel dx="2817" dy="2263" grid="1" gridSize="10" guides="1" tooltips="1" connect="1" arrows="1" fold="1" page="1" pageScale="1" pageWidth="827" pageHeight="1169" math="0" shadow="0">
      <root>
        <mxCell id="0" />
        <mxCell id="1" parent="0" />
        <mxCell id="6ymYnt-OKIHyIZnd5Fwz-16" style="edgeStyle=orthogonalEdgeStyle;rounded=0;orthogonalLoop=1;jettySize=auto;html=1;entryX=0;entryY=0.5;entryDx=0;entryDy=0;" parent="1" source="6ymYnt-OKIHyIZnd5Fwz-1" target="6ymYnt-OKIHyIZnd5Fwz-6" edge="1">
          <mxGeometry relative="1" as="geometry" />
        </mxCell>
        <mxCell id="6ymYnt-OKIHyIZnd5Fwz-17" style="edgeStyle=orthogonalEdgeStyle;rounded=0;orthogonalLoop=1;jettySize=auto;html=1;entryX=0;entryY=0.5;entryDx=0;entryDy=0;" parent="1" source="6ymYnt-OKIHyIZnd5Fwz-1" target="6ymYnt-OKIHyIZnd5Fwz-7" edge="1">
          <mxGeometry relative="1" as="geometry" />
        </mxCell>
        <mxCell id="6ymYnt-OKIHyIZnd5Fwz-1" value="&lt;b&gt;&lt;font style=&quot;font-size: 16px;&quot;&gt;Inventarios forestales&lt;/font&gt;&lt;/b&gt;" style="shape=cylinder3;whiteSpace=wrap;html=1;boundedLbl=1;backgroundOutline=1;size=15;fillColor=#cdeb8b;strokeColor=#36393d;" parent="1" vertex="1">
          <mxGeometry x="-647.5" y="-715" width="160" height="130" as="geometry" />
        </mxCell>
        <mxCell id="6ymYnt-OKIHyIZnd5Fwz-20" style="edgeStyle=orthogonalEdgeStyle;rounded=0;orthogonalLoop=1;jettySize=auto;html=1;entryX=0.5;entryY=1;entryDx=0;entryDy=0;" parent="1" source="6ymYnt-OKIHyIZnd5Fwz-2" target="6ymYnt-OKIHyIZnd5Fwz-7" edge="1">
          <mxGeometry relative="1" as="geometry" />
        </mxCell>
        <mxCell id="6ymYnt-OKIHyIZnd5Fwz-21" style="edgeStyle=orthogonalEdgeStyle;rounded=0;orthogonalLoop=1;jettySize=auto;html=1;entryX=0.5;entryY=0;entryDx=0;entryDy=0;" parent="1" source="6ymYnt-OKIHyIZnd5Fwz-2" target="6ymYnt-OKIHyIZnd5Fwz-3" edge="1">
          <mxGeometry relative="1" as="geometry" />
        </mxCell>
        <mxCell id="CzqLKFN_9eyNsbh-GQo_-21" style="edgeStyle=orthogonalEdgeStyle;rounded=0;orthogonalLoop=1;jettySize=auto;html=1;entryX=0;entryY=0.5;entryDx=0;entryDy=0;" edge="1" parent="1" source="6ymYnt-OKIHyIZnd5Fwz-2" target="CzqLKFN_9eyNsbh-GQo_-20">
          <mxGeometry relative="1" as="geometry" />
        </mxCell>
        <mxCell id="6ymYnt-OKIHyIZnd5Fwz-2" value="&lt;font style=&quot;font-size: 14px;&quot;&gt;Mapa de vegetación&lt;/font&gt;" style="shape=parallelogram;perimeter=parallelogramPerimeter;whiteSpace=wrap;html=1;fixedSize=1;" parent="1" vertex="1">
          <mxGeometry x="-447.5" y="-510" width="185" height="60" as="geometry" />
        </mxCell>
        <mxCell id="6ymYnt-OKIHyIZnd5Fwz-22" style="edgeStyle=orthogonalEdgeStyle;rounded=0;orthogonalLoop=1;jettySize=auto;html=1;" parent="1" source="6ymYnt-OKIHyIZnd5Fwz-3" target="6ymYnt-OKIHyIZnd5Fwz-13" edge="1">
          <mxGeometry relative="1" as="geometry" />
        </mxCell>
        <mxCell id="6ymYnt-OKIHyIZnd5Fwz-3" value="&lt;font style=&quot;font-size: 14px;&quot;&gt;Análisis de proximidad&lt;/font&gt;" style="rhombus;whiteSpace=wrap;html=1;" parent="1" vertex="1">
          <mxGeometry x="-415" y="-360" width="120" height="100" as="geometry" />
        </mxCell>
        <mxCell id="6ymYnt-OKIHyIZnd5Fwz-18" style="edgeStyle=orthogonalEdgeStyle;rounded=0;orthogonalLoop=1;jettySize=auto;html=1;entryX=0;entryY=0.5;entryDx=0;entryDy=0;" parent="1" source="6ymYnt-OKIHyIZnd5Fwz-6" target="6ymYnt-OKIHyIZnd5Fwz-8" edge="1">
          <mxGeometry relative="1" as="geometry" />
        </mxCell>
        <mxCell id="6ymYnt-OKIHyIZnd5Fwz-6" value="&lt;font style=&quot;font-size: 14px;&quot;&gt;Imputación&lt;/font&gt;" style="rhombus;whiteSpace=wrap;html=1;" parent="1" vertex="1">
          <mxGeometry x="-272.5" y="-710" width="130" height="50" as="geometry" />
        </mxCell>
        <mxCell id="6ymYnt-OKIHyIZnd5Fwz-19" style="edgeStyle=orthogonalEdgeStyle;rounded=0;orthogonalLoop=1;jettySize=auto;html=1;entryX=0;entryY=0.5;entryDx=0;entryDy=0;" parent="1" source="6ymYnt-OKIHyIZnd5Fwz-7" target="6ymYnt-OKIHyIZnd5Fwz-11" edge="1">
          <mxGeometry relative="1" as="geometry" />
        </mxCell>
        <mxCell id="6ymYnt-OKIHyIZnd5Fwz-7" value="&lt;font style=&quot;font-size: 14px;&quot;&gt;Interpolación&lt;/font&gt;" style="rhombus;whiteSpace=wrap;html=1;" parent="1" vertex="1">
          <mxGeometry x="-272.5" y="-635" width="130" height="50" as="geometry" />
        </mxCell>
        <mxCell id="6ymYnt-OKIHyIZnd5Fwz-8" value="&lt;font style=&quot;font-size: 14px;&quot;&gt;Densidad&lt;/font&gt;&lt;div&gt;&lt;font style=&quot;font-size: 14px;&quot;&gt;&amp;nbsp;pinares de&lt;/font&gt;&lt;/div&gt;&lt;div&gt;&lt;font style=&quot;font-size: 14px;&quot;&gt;repoblación (2)&lt;/font&gt;&lt;/div&gt;" style="shape=parallelogram;perimeter=parallelogramPerimeter;whiteSpace=wrap;html=1;fixedSize=1;" parent="1" vertex="1">
          <mxGeometry x="-90" y="-715" width="137.5" height="60" as="geometry" />
        </mxCell>
        <mxCell id="6ymYnt-OKIHyIZnd5Fwz-11" value="&lt;font style=&quot;font-size: 14px;&quot;&gt;Densidad&lt;/font&gt;&lt;div&gt;&lt;font style=&quot;font-size: 14px;&quot;&gt;&amp;nbsp;pinares de&lt;/font&gt;&lt;/div&gt;&lt;div&gt;&lt;font style=&quot;font-size: 14px;&quot;&gt;repoblación (3)&lt;/font&gt;&lt;/div&gt;" style="shape=parallelogram;perimeter=parallelogramPerimeter;whiteSpace=wrap;html=1;fixedSize=1;" parent="1" vertex="1">
          <mxGeometry x="-98.25" y="-640" width="137.5" height="60" as="geometry" />
        </mxCell>
        <mxCell id="CzqLKFN_9eyNsbh-GQo_-16" style="edgeStyle=orthogonalEdgeStyle;rounded=0;orthogonalLoop=1;jettySize=auto;html=1;entryX=0.5;entryY=1;entryDx=0;entryDy=0;" edge="1" parent="1" source="6ymYnt-OKIHyIZnd5Fwz-13" target="6ymYnt-OKIHyIZnd5Fwz-14">
          <mxGeometry relative="1" as="geometry" />
        </mxCell>
        <mxCell id="6ymYnt-OKIHyIZnd5Fwz-13" value="&lt;font style=&quot;font-size: 14px;&quot;&gt;Mapa ráster de proximidad:&lt;/font&gt;&lt;div&gt;&lt;font style=&quot;font-size: 14px;&quot;&gt;distancia al píxel con encinas más cercano&lt;/font&gt;&lt;/div&gt;" style="shape=parallelogram;perimeter=parallelogramPerimeter;whiteSpace=wrap;html=1;fixedSize=1;" parent="1" vertex="1">
          <mxGeometry x="-249.5" y="-340" width="440" height="60" as="geometry" />
        </mxCell>
        <mxCell id="6ymYnt-OKIHyIZnd5Fwz-14" value="&lt;font style=&quot;font-size: 14px;&quot;&gt;Los píxeles más cercanos a encinares son más adecuados (distancia a fuente de propágulos)&lt;/font&gt;" style="text;html=1;strokeColor=none;fillColor=none;align=center;verticalAlign=middle;whiteSpace=wrap;rounded=0;" parent="1" vertex="1">
          <mxGeometry x="-191.75" y="-392" width="324.5" height="30" as="geometry" />
        </mxCell>
        <mxCell id="6ymYnt-OKIHyIZnd5Fwz-33" style="edgeStyle=orthogonalEdgeStyle;rounded=0;orthogonalLoop=1;jettySize=auto;html=1;entryX=0;entryY=0.5;entryDx=0;entryDy=0;" parent="1" source="6ymYnt-OKIHyIZnd5Fwz-23" target="6ymYnt-OKIHyIZnd5Fwz-32" edge="1">
          <mxGeometry relative="1" as="geometry" />
        </mxCell>
        <mxCell id="6ymYnt-OKIHyIZnd5Fwz-23" value="&lt;font style=&quot;font-size: 14px;&quot;&gt;Mapa de carreteras&lt;/font&gt;" style="shape=parallelogram;perimeter=parallelogramPerimeter;whiteSpace=wrap;html=1;fixedSize=1;" parent="1" vertex="1">
          <mxGeometry x="-442.5" y="-205" width="170" height="60" as="geometry" />
        </mxCell>
        <mxCell id="6ymYnt-OKIHyIZnd5Fwz-30" style="edgeStyle=orthogonalEdgeStyle;rounded=0;orthogonalLoop=1;jettySize=auto;html=1;" parent="1" source="6ymYnt-OKIHyIZnd5Fwz-25" target="6ymYnt-OKIHyIZnd5Fwz-26" edge="1">
          <mxGeometry relative="1" as="geometry" />
        </mxCell>
        <mxCell id="6ymYnt-OKIHyIZnd5Fwz-25" value="&lt;font style=&quot;font-size: 14px;&quot;&gt;Calcular distancias&lt;/font&gt;" style="rhombus;whiteSpace=wrap;html=1;" parent="1" vertex="1">
          <mxGeometry x="-72.5" y="-221.25" width="86" height="90" as="geometry" />
        </mxCell>
        <mxCell id="CzqLKFN_9eyNsbh-GQo_-17" style="edgeStyle=orthogonalEdgeStyle;rounded=0;orthogonalLoop=1;jettySize=auto;html=1;entryX=0.5;entryY=1;entryDx=0;entryDy=0;" edge="1" parent="1" source="6ymYnt-OKIHyIZnd5Fwz-26" target="6ymYnt-OKIHyIZnd5Fwz-27">
          <mxGeometry relative="1" as="geometry" />
        </mxCell>
        <mxCell id="6ymYnt-OKIHyIZnd5Fwz-26" value="&lt;font style=&quot;font-size: 14px;&quot;&gt;Mapa de distancias a carreteras&lt;/font&gt;" style="shape=parallelogram;perimeter=parallelogramPerimeter;whiteSpace=wrap;html=1;fixedSize=1;" parent="1" vertex="1">
          <mxGeometry x="42.5" y="-205" width="170" height="60" as="geometry" />
        </mxCell>
        <mxCell id="6ymYnt-OKIHyIZnd5Fwz-27" value="&lt;font style=&quot;font-size: 14px;&quot;&gt;Los sitios más cercanos a carreteras son más adecuados para el tratamiento silvícola&lt;/font&gt;" style="text;html=1;strokeColor=none;fillColor=none;align=center;verticalAlign=middle;whiteSpace=wrap;rounded=0;" parent="1" vertex="1">
          <mxGeometry x="-12.5" y="-256.25" width="280" height="30" as="geometry" />
        </mxCell>
        <mxCell id="HFXLBY0zuODx8KywWs2K-16" style="edgeStyle=orthogonalEdgeStyle;rounded=0;orthogonalLoop=1;jettySize=auto;html=1;entryX=0;entryY=0.5;entryDx=0;entryDy=0;" parent="1" source="6ymYnt-OKIHyIZnd5Fwz-32" target="6ymYnt-OKIHyIZnd5Fwz-25" edge="1">
          <mxGeometry relative="1" as="geometry" />
        </mxCell>
        <mxCell id="6ymYnt-OKIHyIZnd5Fwz-32" value="&lt;font style=&quot;font-size: 14px;&quot;&gt;Convertir a ráster&lt;/font&gt;" style="rhombus;whiteSpace=wrap;html=1;" parent="1" vertex="1">
          <mxGeometry x="-222.5" y="-221.25" width="110" height="91.25" as="geometry" />
        </mxCell>
        <mxCell id="6ymYnt-OKIHyIZnd5Fwz-49" value="" style="edgeStyle=orthogonalEdgeStyle;rounded=0;orthogonalLoop=1;jettySize=auto;html=1;" parent="1" source="6ymYnt-OKIHyIZnd5Fwz-34" target="6ymYnt-OKIHyIZnd5Fwz-48" edge="1">
          <mxGeometry relative="1" as="geometry" />
        </mxCell>
        <mxCell id="6ymYnt-OKIHyIZnd5Fwz-34" value="&lt;font style=&quot;font-size: 14px;&quot;&gt;Mapa de abundancia de dispersores (arrendajos, roedores)&lt;/font&gt;" style="shape=parallelogram;perimeter=parallelogramPerimeter;whiteSpace=wrap;html=1;fixedSize=1;" parent="1" vertex="1">
          <mxGeometry x="525" y="-52.5" width="250" height="60" as="geometry" />
        </mxCell>
        <mxCell id="6ymYnt-OKIHyIZnd5Fwz-46" style="edgeStyle=orthogonalEdgeStyle;rounded=0;orthogonalLoop=1;jettySize=auto;html=1;" parent="1" edge="1">
          <mxGeometry relative="1" as="geometry">
            <mxPoint x="535" y="-22.5" as="targetPoint" />
            <mxPoint x="229.99999999999955" y="-22.5" as="sourcePoint" />
          </mxGeometry>
        </mxCell>
        <mxCell id="6ymYnt-OKIHyIZnd5Fwz-37" value="&lt;font style=&quot;font-size: 14px;&quot;&gt;Procedimiento para espacializar la distribución de los dispersores&lt;/font&gt;" style="rhombus;whiteSpace=wrap;html=1;fontSize=12;" parent="1" vertex="1">
          <mxGeometry x="55" y="-102.5" width="175" height="160" as="geometry" />
        </mxCell>
        <mxCell id="6ymYnt-OKIHyIZnd5Fwz-45" style="edgeStyle=orthogonalEdgeStyle;rounded=0;orthogonalLoop=1;jettySize=auto;html=1;entryX=0;entryY=0.5;entryDx=0;entryDy=0;" parent="1" target="6ymYnt-OKIHyIZnd5Fwz-34" edge="1">
          <mxGeometry relative="1" as="geometry">
            <mxPoint x="450.00000000000045" y="-22.5" as="sourcePoint" />
          </mxGeometry>
        </mxCell>
        <mxCell id="6ymYnt-OKIHyIZnd5Fwz-39" value="&lt;font style=&quot;font-size: 14px;&quot;&gt;Procedimiento para espacializar la abundancia de los dispersores&lt;/font&gt;" style="rhombus;whiteSpace=wrap;html=1;fontSize=12;" parent="1" vertex="1">
          <mxGeometry x="275" y="-102.5" width="175" height="160" as="geometry" />
        </mxCell>
        <mxCell id="6ymYnt-OKIHyIZnd5Fwz-42" value="&lt;font style=&quot;font-size: 16px;&quot;&gt;&lt;b&gt;Atlas de fauna&lt;/b&gt;&lt;/font&gt;&lt;span style=&quot;white-space: pre;&quot;&gt;&lt;/span&gt;" style="shape=cylinder3;whiteSpace=wrap;html=1;boundedLbl=1;backgroundOutline=1;size=15;fillColor=#e51400;fontColor=#ffffff;strokeColor=#B20000;" parent="1" vertex="1">
          <mxGeometry x="-660" y="440" width="170" height="120" as="geometry" />
        </mxCell>
        <mxCell id="6ymYnt-OKIHyIZnd5Fwz-48" value="&lt;font style=&quot;font-size: 14px;&quot;&gt;Cálculo de&lt;/font&gt;&lt;div&gt;&lt;font style=&quot;font-size: 14px;&quot;&gt;distancias&lt;/font&gt;&lt;/div&gt;" style="rhombus;whiteSpace=wrap;html=1;" parent="1" vertex="1">
          <mxGeometry x="795" y="-62.5" width="140" height="80" as="geometry" />
        </mxCell>
        <mxCell id="CzqLKFN_9eyNsbh-GQo_-7" style="edgeStyle=orthogonalEdgeStyle;rounded=0;orthogonalLoop=1;jettySize=auto;html=1;entryX=0;entryY=0.5;entryDx=0;entryDy=0;" edge="1" parent="1" source="6ymYnt-OKIHyIZnd5Fwz-52" target="CzqLKFN_9eyNsbh-GQo_-1">
          <mxGeometry relative="1" as="geometry" />
        </mxCell>
        <mxCell id="6ymYnt-OKIHyIZnd5Fwz-52" value="&lt;font style=&quot;font-size: 16px;&quot;&gt;&lt;b&gt;Landsat 7&lt;br&gt;Reflectancia superficial&lt;/b&gt;&lt;/font&gt;" style="shape=cylinder3;whiteSpace=wrap;html=1;boundedLbl=1;backgroundOutline=1;size=15;fillColor=#ffcccc;strokeColor=#36393d;" parent="1" vertex="1">
          <mxGeometry x="-672.5" y="279" width="200" height="120" as="geometry" />
        </mxCell>
        <mxCell id="6ymYnt-OKIHyIZnd5Fwz-56" value="&lt;font style=&quot;font-size: 14px;&quot;&gt;A mayor valor de LSWI, mayor idoneidad para el crecimiento de la encina&lt;/font&gt;" style="text;html=1;strokeColor=none;fillColor=none;align=center;verticalAlign=middle;whiteSpace=wrap;rounded=0;" parent="1" vertex="1">
          <mxGeometry x="450" y="279" width="260" height="30" as="geometry" />
        </mxCell>
        <mxCell id="6ymYnt-OKIHyIZnd5Fwz-59" style="edgeStyle=orthogonalEdgeStyle;rounded=0;orthogonalLoop=1;jettySize=auto;html=1;" parent="1" target="6ymYnt-OKIHyIZnd5Fwz-58" edge="1">
          <mxGeometry relative="1" as="geometry">
            <mxPoint x="259.99566176470586" y="345.0588235294117" as="sourcePoint" />
          </mxGeometry>
        </mxCell>
        <mxCell id="6ymYnt-OKIHyIZnd5Fwz-58" value="&lt;font style=&quot;font-size: 14px;&quot;&gt;Mapa de humedad del suelo&lt;/font&gt;&lt;div&gt;&lt;font style=&quot;font-size: 14px;&quot;&gt;(LSWI)&lt;/font&gt;&lt;/div&gt;" style="shape=parallelogram;perimeter=parallelogramPerimeter;whiteSpace=wrap;html=1;fixedSize=1;" parent="1" vertex="1">
          <mxGeometry x="446.06" y="316" width="253" height="59" as="geometry" />
        </mxCell>
        <mxCell id="HFXLBY0zuODx8KywWs2K-14" style="edgeStyle=orthogonalEdgeStyle;rounded=0;orthogonalLoop=1;jettySize=auto;html=1;entryX=0;entryY=0.5;entryDx=0;entryDy=0;" parent="1" source="6ymYnt-OKIHyIZnd5Fwz-62" target="6ymYnt-OKIHyIZnd5Fwz-65" edge="1">
          <mxGeometry relative="1" as="geometry" />
        </mxCell>
        <mxCell id="CzqLKFN_9eyNsbh-GQo_-11" style="edgeStyle=orthogonalEdgeStyle;rounded=0;orthogonalLoop=1;jettySize=auto;html=1;entryX=0.5;entryY=1;entryDx=0;entryDy=0;" edge="1" parent="1" source="6ymYnt-OKIHyIZnd5Fwz-62" target="FolasR7Gj44QnJgW1C1z-9">
          <mxGeometry relative="1" as="geometry" />
        </mxCell>
        <mxCell id="6ymYnt-OKIHyIZnd5Fwz-62" value="&lt;b&gt;&lt;font style=&quot;font-size: 16px;&quot;&gt;GBIF&lt;/font&gt;&lt;/b&gt;" style="shape=cylinder3;whiteSpace=wrap;html=1;boundedLbl=1;backgroundOutline=1;size=15;fillColor=#eeeeee;strokeColor=#36393d;" parent="1" vertex="1">
          <mxGeometry x="-657.5" y="95" width="170" height="120" as="geometry" />
        </mxCell>
        <mxCell id="zE25ennqfASYhB-I0x3o-2" style="edgeStyle=orthogonalEdgeStyle;rounded=0;orthogonalLoop=1;jettySize=auto;html=1;entryX=0;entryY=0.5;entryDx=0;entryDy=0;" parent="1" source="6ymYnt-OKIHyIZnd5Fwz-65" target="zE25ennqfASYhB-I0x3o-1" edge="1">
          <mxGeometry relative="1" as="geometry" />
        </mxCell>
        <mxCell id="6ymYnt-OKIHyIZnd5Fwz-65" value="&lt;span style=&quot;font-family: Helvetica, arial, sans-serif; font-size: 14px; text-align: left; background-color: rgb(255, 255, 255);&quot;&gt;Importamos el archivo csv de GBIF con sus atributos geográficos&lt;/span&gt;" style="rhombus;whiteSpace=wrap;html=1;" parent="1" vertex="1">
          <mxGeometry x="-460" y="70" width="190" height="170" as="geometry" />
        </mxCell>
        <mxCell id="8uNOAsqcAC4Zf92Hd2os-5" style="edgeStyle=orthogonalEdgeStyle;rounded=0;orthogonalLoop=1;jettySize=auto;html=1;entryX=0;entryY=0.5;entryDx=0;entryDy=0;" parent="1" source="8uNOAsqcAC4Zf92Hd2os-1" target="8uNOAsqcAC4Zf92Hd2os-3" edge="1">
          <mxGeometry relative="1" as="geometry" />
        </mxCell>
        <mxCell id="8uNOAsqcAC4Zf92Hd2os-1" value="&lt;font style=&quot;font-size: 14px;&quot;&gt;Imágenes de satélite Copernicus&lt;/font&gt;" style="shape=cylinder3;whiteSpace=wrap;html=1;boundedLbl=1;backgroundOutline=1;size=15;" parent="1" vertex="1">
          <mxGeometry x="-462.5" y="-807.5" width="140" height="95" as="geometry" />
        </mxCell>
        <mxCell id="8uNOAsqcAC4Zf92Hd2os-2" style="edgeStyle=orthogonalEdgeStyle;rounded=0;orthogonalLoop=1;jettySize=auto;html=1;entryX=0;entryY=0.5;entryDx=0;entryDy=0;" parent="1" source="8uNOAsqcAC4Zf92Hd2os-3" target="8uNOAsqcAC4Zf92Hd2os-4" edge="1">
          <mxGeometry relative="1" as="geometry" />
        </mxCell>
        <mxCell id="8uNOAsqcAC4Zf92Hd2os-3" value="&lt;font style=&quot;font-size: 14px;&quot;&gt;Teledetección&lt;/font&gt;" style="rhombus;whiteSpace=wrap;html=1;" parent="1" vertex="1">
          <mxGeometry x="-272.5" y="-783" width="130" height="45" as="geometry" />
        </mxCell>
        <mxCell id="8uNOAsqcAC4Zf92Hd2os-11" style="edgeStyle=orthogonalEdgeStyle;rounded=0;orthogonalLoop=1;jettySize=auto;html=1;entryX=0;entryY=0.5;entryDx=0;entryDy=0;" parent="1" source="8uNOAsqcAC4Zf92Hd2os-4" target="8uNOAsqcAC4Zf92Hd2os-9" edge="1">
          <mxGeometry relative="1" as="geometry" />
        </mxCell>
        <mxCell id="8uNOAsqcAC4Zf92Hd2os-4" value="&lt;font style=&quot;font-size: 14px;&quot;&gt;Densidad&lt;/font&gt;&lt;div&gt;&lt;font style=&quot;font-size: 14px;&quot;&gt;&amp;nbsp;pinares de repoblación (1)&lt;/font&gt;&lt;/div&gt;" style="shape=parallelogram;perimeter=parallelogramPerimeter;whiteSpace=wrap;html=1;fixedSize=1;" parent="1" vertex="1">
          <mxGeometry x="-80" y="-790" width="137.5" height="60" as="geometry" />
        </mxCell>
        <mxCell id="CzqLKFN_9eyNsbh-GQo_-12" style="edgeStyle=orthogonalEdgeStyle;rounded=0;orthogonalLoop=1;jettySize=auto;html=1;entryX=0;entryY=0.5;entryDx=0;entryDy=0;" edge="1" parent="1" source="8uNOAsqcAC4Zf92Hd2os-9" target="8uNOAsqcAC4Zf92Hd2os-18">
          <mxGeometry relative="1" as="geometry" />
        </mxCell>
        <mxCell id="8uNOAsqcAC4Zf92Hd2os-9" value="&lt;font style=&quot;font-size: 14px;&quot;&gt;Cambio de unidades&lt;/font&gt;&lt;div style=&quot;font-size: 14px;&quot;&gt;&lt;font style=&quot;font-size: 14px;&quot;&gt;(% a pies/ha)&lt;/font&gt;&lt;/div&gt;" style="rhombus;whiteSpace=wrap;html=1;" parent="1" vertex="1">
          <mxGeometry x="97.5" y="-840.5" width="180" height="160" as="geometry" />
        </mxCell>
        <mxCell id="8uNOAsqcAC4Zf92Hd2os-15" style="edgeStyle=orthogonalEdgeStyle;rounded=0;orthogonalLoop=1;jettySize=auto;html=1;entryX=0.5;entryY=1;entryDx=0;entryDy=0;" parent="1" source="8uNOAsqcAC4Zf92Hd2os-14" target="8uNOAsqcAC4Zf92Hd2os-9" edge="1">
          <mxGeometry relative="1" as="geometry" />
        </mxCell>
        <mxCell id="8uNOAsqcAC4Zf92Hd2os-14" value="&lt;font style=&quot;font-size: 14px;&quot;&gt;Hacer una regla de tres para reescalar con la densidad mínima y máxima de los inventarios forestales.&amp;nbsp;&lt;/font&gt;" style="text;html=1;strokeColor=#b85450;fillColor=#f8cecc;align=center;verticalAlign=middle;whiteSpace=wrap;rounded=0;" parent="1" vertex="1">
          <mxGeometry x="52.5" y="-630" width="270" height="55" as="geometry" />
        </mxCell>
        <mxCell id="CzqLKFN_9eyNsbh-GQo_-15" style="edgeStyle=orthogonalEdgeStyle;rounded=0;orthogonalLoop=1;jettySize=auto;html=1;" edge="1" parent="1" source="8uNOAsqcAC4Zf92Hd2os-18" target="CzqLKFN_9eyNsbh-GQo_-13">
          <mxGeometry relative="1" as="geometry" />
        </mxCell>
        <mxCell id="8uNOAsqcAC4Zf92Hd2os-18" value="&lt;font style=&quot;font-size: 14px;&quot;&gt;Densidad de los pinares&lt;/font&gt;&lt;div style=&quot;font-size: 14px;&quot;&gt;&lt;font style=&quot;font-size: 14px;&quot;&gt;de repoblación&lt;/font&gt;&lt;div style=&quot;&quot;&gt;&lt;font style=&quot;font-size: 14px;&quot;&gt;(definitiva)&lt;/font&gt;&lt;/div&gt;&lt;/div&gt;" style="shape=parallelogram;perimeter=parallelogramPerimeter;whiteSpace=wrap;html=1;fixedSize=1;" parent="1" vertex="1">
          <mxGeometry x="310" y="-790" width="210" height="60" as="geometry" />
        </mxCell>
        <mxCell id="FolasR7Gj44QnJgW1C1z-1" value="" style="shape=flexArrow;endArrow=classic;html=1;rounded=0;fillColor=#e51400;strokeColor=#B20000;width=34.285714285714285;endSize=12.057142857142857;endWidth=42.44897959183674;" parent="1" edge="1">
          <mxGeometry width="50" height="50" relative="1" as="geometry">
            <mxPoint x="57.5" y="-510" as="sourcePoint" />
            <mxPoint x="125" y="-580" as="targetPoint" />
          </mxGeometry>
        </mxCell>
        <mxCell id="FolasR7Gj44QnJgW1C1z-4" style="edgeStyle=orthogonalEdgeStyle;rounded=0;orthogonalLoop=1;jettySize=auto;html=1;entryX=0;entryY=0.5;entryDx=0;entryDy=0;" parent="1" source="FolasR7Gj44QnJgW1C1z-3" target="6ymYnt-OKIHyIZnd5Fwz-23" edge="1">
          <mxGeometry relative="1" as="geometry" />
        </mxCell>
        <mxCell id="FolasR7Gj44QnJgW1C1z-3" value="&lt;font style=&quot;font-size: 16px;&quot;&gt;&lt;b&gt;CNIG&lt;/b&gt;&lt;/font&gt;&lt;div style=&quot;font-size: 16px;&quot;&gt;&lt;font style=&quot;font-size: 16px;&quot;&gt;&lt;b&gt;Redes de transporte&lt;/b&gt;&lt;/font&gt;&lt;/div&gt;" style="shape=cylinder3;whiteSpace=wrap;html=1;boundedLbl=1;backgroundOutline=1;size=15;fillColor=#ffcc99;strokeColor=#36393d;" parent="1" vertex="1">
          <mxGeometry x="-657.5" y="-240" width="165" height="127.5" as="geometry" />
        </mxCell>
        <mxCell id="FolasR7Gj44QnJgW1C1z-6" style="edgeStyle=orthogonalEdgeStyle;rounded=0;orthogonalLoop=1;jettySize=auto;html=1;entryX=0;entryY=0.5;entryDx=0;entryDy=0;" parent="1" source="FolasR7Gj44QnJgW1C1z-5" target="6ymYnt-OKIHyIZnd5Fwz-2" edge="1">
          <mxGeometry relative="1" as="geometry" />
        </mxCell>
        <mxCell id="FolasR7Gj44QnJgW1C1z-5" value="&lt;font style=&quot;font-size: 16px;&quot;&gt;&lt;b&gt;Rediam&lt;/b&gt;&lt;/font&gt;&lt;div style=&quot;font-size: 16px;&quot;&gt;&lt;font style=&quot;font-size: 16px;&quot;&gt;&lt;b&gt;MUCVA&lt;/b&gt;&lt;/font&gt;&lt;/div&gt;" style="shape=cylinder3;whiteSpace=wrap;html=1;boundedLbl=1;backgroundOutline=1;size=15;fillColor=#cce5ff;strokeColor=#36393d;" parent="1" vertex="1">
          <mxGeometry x="-652.5" y="-545" width="160" height="130" as="geometry" />
        </mxCell>
        <mxCell id="FolasR7Gj44QnJgW1C1z-10" style="edgeStyle=orthogonalEdgeStyle;rounded=0;orthogonalLoop=1;jettySize=auto;html=1;" parent="1" target="FolasR7Gj44QnJgW1C1z-9" edge="1">
          <mxGeometry relative="1" as="geometry">
            <mxPoint x="-573.2857142857142" y="40" as="sourcePoint" />
          </mxGeometry>
        </mxCell>
        <mxCell id="FolasR7Gj44QnJgW1C1z-18" style="edgeStyle=orthogonalEdgeStyle;rounded=0;orthogonalLoop=1;jettySize=auto;html=1;" parent="1" source="FolasR7Gj44QnJgW1C1z-9" target="FolasR7Gj44QnJgW1C1z-11" edge="1">
          <mxGeometry relative="1" as="geometry">
            <mxPoint x="-447" y="-22.5" as="targetPoint" />
          </mxGeometry>
        </mxCell>
        <mxCell id="FolasR7Gj44QnJgW1C1z-9" value="&lt;b style=&quot;font-size: 15px;&quot;&gt;&lt;font style=&quot;font-size: 15px;&quot;&gt;Distribución&lt;/font&gt;&lt;/b&gt;&lt;div style=&quot;font-size: 15px;&quot;&gt;&lt;i style=&quot;&quot;&gt;&lt;b&gt;&lt;font style=&quot;font-size: 15px;&quot;&gt;Garrulus glandarius&lt;/font&gt;&lt;/b&gt;&lt;/i&gt;&lt;div style=&quot;&quot;&gt;&lt;b style=&quot;&quot;&gt;&lt;font style=&quot;font-size: 15px;&quot;&gt;(Darwin Core Archive)&lt;/font&gt;&lt;/b&gt;&lt;/div&gt;&lt;/div&gt;" style="shape=internalStorage;whiteSpace=wrap;html=1;backgroundOutline=1;verticalAlign=middle;align=center;spacingRight=0;spacingLeft=16;spacingTop=18;" parent="1" vertex="1">
          <mxGeometry x="-667" y="-75" width="187.5" height="107.5" as="geometry" />
        </mxCell>
        <mxCell id="FolasR7Gj44QnJgW1C1z-14" style="edgeStyle=orthogonalEdgeStyle;rounded=0;orthogonalLoop=1;jettySize=auto;html=1;entryX=0;entryY=0.5;entryDx=0;entryDy=0;" parent="1" source="FolasR7Gj44QnJgW1C1z-11" target="FolasR7Gj44QnJgW1C1z-13" edge="1">
          <mxGeometry relative="1" as="geometry" />
        </mxCell>
        <mxCell id="FolasR7Gj44QnJgW1C1z-11" value="&lt;font style=&quot;font-size: 14px;&quot;&gt;Crear capa a&lt;/font&gt;&lt;div style=&quot;font-size: 14px;&quot;&gt;&lt;font style=&quot;font-size: 14px;&quot;&gt;partir de texto delimitado&amp;nbsp;&lt;/font&gt;&lt;/div&gt;" style="rhombus;whiteSpace=wrap;html=1;" parent="1" vertex="1">
          <mxGeometry x="-442" y="-75" width="142" height="105" as="geometry" />
        </mxCell>
        <mxCell id="FolasR7Gj44QnJgW1C1z-16" style="edgeStyle=orthogonalEdgeStyle;rounded=0;orthogonalLoop=1;jettySize=auto;html=1;entryX=0;entryY=0.5;entryDx=0;entryDy=0;" parent="1" source="FolasR7Gj44QnJgW1C1z-13" target="FolasR7Gj44QnJgW1C1z-15" edge="1">
          <mxGeometry relative="1" as="geometry" />
        </mxCell>
        <mxCell id="FolasR7Gj44QnJgW1C1z-13" value="&lt;font style=&quot;&quot;&gt;&lt;font style=&quot;font-size: 14px;&quot;&gt;Buffer 1 km&lt;/font&gt;&lt;font style=&quot;font-size: 14px;&quot;&gt; &lt;/font&gt;&lt;font style=&quot;font-size: 12px;&quot;&gt;(MITECO, 2009)&lt;/font&gt;&lt;/font&gt;" style="rhombus;whiteSpace=wrap;html=1;" parent="1" vertex="1">
          <mxGeometry x="-271" y="-75" width="121" height="105" as="geometry" />
        </mxCell>
        <mxCell id="CzqLKFN_9eyNsbh-GQo_-19" style="edgeStyle=orthogonalEdgeStyle;rounded=0;orthogonalLoop=1;jettySize=auto;html=1;entryX=0;entryY=0.5;entryDx=0;entryDy=0;" edge="1" parent="1" source="FolasR7Gj44QnJgW1C1z-15" target="6ymYnt-OKIHyIZnd5Fwz-37">
          <mxGeometry relative="1" as="geometry" />
        </mxCell>
        <mxCell id="FolasR7Gj44QnJgW1C1z-15" value="&lt;font style=&quot;font-size: 14px;&quot;&gt;Criterio idoneidad según dispersores de semillas&lt;/font&gt;" style="shape=parallelogram;perimeter=parallelogramPerimeter;whiteSpace=wrap;html=1;fixedSize=1;" parent="1" vertex="1">
          <mxGeometry x="-145" y="-52.5" width="170" height="60" as="geometry" />
        </mxCell>
        <mxCell id="HFXLBY0zuODx8KywWs2K-2" value="" style="edgeStyle=orthogonalEdgeStyle;rounded=0;orthogonalLoop=1;jettySize=auto;html=1;" parent="1" source="xoff0rQmzDAOq9qUsHs6-2" target="HFXLBY0zuODx8KywWs2K-1" edge="1">
          <mxGeometry relative="1" as="geometry" />
        </mxCell>
        <mxCell id="xoff0rQmzDAOq9qUsHs6-2" value="&lt;div style=&quot;font-size: 16px;&quot;&gt;&lt;font style=&quot;font-size: 16px;&quot;&gt;&lt;b&gt;REDIAM&lt;/b&gt;&lt;/font&gt;&lt;/div&gt;&lt;div style=&quot;font-size: 16px;&quot;&gt;&lt;font style=&quot;font-size: 16px;&quot;&gt;&lt;b&gt;Temperatura&lt;/b&gt;&lt;/font&gt;&lt;/div&gt;" style="shape=cylinder3;whiteSpace=wrap;html=1;boundedLbl=1;backgroundOutline=1;size=15;fillColor=#cce5ff;strokeColor=#36393d;" parent="1" vertex="1">
          <mxGeometry x="-660" y="600" width="170" height="120" as="geometry" />
        </mxCell>
        <mxCell id="HFXLBY0zuODx8KywWs2K-4" value="" style="edgeStyle=orthogonalEdgeStyle;rounded=0;orthogonalLoop=1;jettySize=auto;html=1;" parent="1" source="xoff0rQmzDAOq9qUsHs6-3" target="HFXLBY0zuODx8KywWs2K-3" edge="1">
          <mxGeometry relative="1" as="geometry" />
        </mxCell>
        <mxCell id="xoff0rQmzDAOq9qUsHs6-3" value="&lt;div style=&quot;font-size: 16px;&quot;&gt;&lt;font style=&quot;font-size: 16px;&quot;&gt;&lt;b&gt;REDIAM&lt;/b&gt;&lt;/font&gt;&lt;/div&gt;&lt;div style=&quot;font-size: 16px;&quot;&gt;&lt;font style=&quot;font-size: 16px;&quot;&gt;&lt;b&gt;Precipitación&lt;/b&gt;&lt;/font&gt;&lt;/div&gt;" style="shape=cylinder3;whiteSpace=wrap;html=1;boundedLbl=1;backgroundOutline=1;size=15;fillColor=#cce5ff;strokeColor=#36393d;" parent="1" vertex="1">
          <mxGeometry x="-660" y="800" width="170" height="120" as="geometry" />
        </mxCell>
        <mxCell id="HFXLBY0zuODx8KywWs2K-6" value="" style="edgeStyle=orthogonalEdgeStyle;rounded=0;orthogonalLoop=1;jettySize=auto;html=1;" parent="1" source="HFXLBY0zuODx8KywWs2K-1" target="HFXLBY0zuODx8KywWs2K-5" edge="1">
          <mxGeometry relative="1" as="geometry" />
        </mxCell>
        <mxCell id="HFXLBY0zuODx8KywWs2K-1" value="&lt;font style=&quot;font-size: 14px;&quot;&gt;Descarga de la cartografía de temperatura media anual de Andalucía&lt;/font&gt;" style="rhombus;whiteSpace=wrap;html=1;" parent="1" vertex="1">
          <mxGeometry x="-440" y="570" width="200" height="180" as="geometry" />
        </mxCell>
        <mxCell id="HFXLBY0zuODx8KywWs2K-8" value="" style="edgeStyle=orthogonalEdgeStyle;rounded=0;orthogonalLoop=1;jettySize=auto;html=1;" parent="1" source="HFXLBY0zuODx8KywWs2K-3" target="HFXLBY0zuODx8KywWs2K-7" edge="1">
          <mxGeometry relative="1" as="geometry" />
        </mxCell>
        <mxCell id="HFXLBY0zuODx8KywWs2K-3" value="&lt;font style=&quot;font-size: 14px;&quot;&gt;Descarga de la cartografía de precipitación media anual de Andalucía&lt;/font&gt;" style="rhombus;whiteSpace=wrap;html=1;" parent="1" vertex="1">
          <mxGeometry x="-440" y="777.5" width="180" height="165" as="geometry" />
        </mxCell>
        <mxCell id="HFXLBY0zuODx8KywWs2K-12" style="edgeStyle=orthogonalEdgeStyle;rounded=0;orthogonalLoop=1;jettySize=auto;html=1;entryX=0;entryY=0.5;entryDx=0;entryDy=0;" parent="1" source="HFXLBY0zuODx8KywWs2K-5" target="HFXLBY0zuODx8KywWs2K-9" edge="1">
          <mxGeometry relative="1" as="geometry" />
        </mxCell>
        <mxCell id="HFXLBY0zuODx8KywWs2K-5" value="&lt;font style=&quot;font-size: 14px;&quot;&gt;Recorte y reproyección de la capa ráster empleando como base la zona de estudio&lt;/font&gt;" style="rhombus;whiteSpace=wrap;html=1;" parent="1" vertex="1">
          <mxGeometry x="-185" y="575" width="210" height="170" as="geometry" />
        </mxCell>
        <mxCell id="HFXLBY0zuODx8KywWs2K-11" style="edgeStyle=orthogonalEdgeStyle;rounded=0;orthogonalLoop=1;jettySize=auto;html=1;entryX=0;entryY=0.5;entryDx=0;entryDy=0;" parent="1" source="HFXLBY0zuODx8KywWs2K-7" target="HFXLBY0zuODx8KywWs2K-10" edge="1">
          <mxGeometry relative="1" as="geometry" />
        </mxCell>
        <mxCell id="HFXLBY0zuODx8KywWs2K-7" value="&lt;font style=&quot;font-size: 14px;&quot;&gt;Recorte y reproyección&amp;nbsp;de la capa ráster empleando como base la zona de estudio&lt;/font&gt;" style="rhombus;whiteSpace=wrap;html=1;" parent="1" vertex="1">
          <mxGeometry x="-201.5" y="777.5" width="215" height="165" as="geometry" />
        </mxCell>
        <mxCell id="HFXLBY0zuODx8KywWs2K-9" value="&lt;font style=&quot;font-size: 14px;&quot;&gt;Mapa de temperatura media anual de la zona de estudio&lt;/font&gt;" style="shape=parallelogram;perimeter=parallelogramPerimeter;whiteSpace=wrap;html=1;fixedSize=1;" parent="1" vertex="1">
          <mxGeometry x="100" y="620" width="200" height="80" as="geometry" />
        </mxCell>
        <mxCell id="HFXLBY0zuODx8KywWs2K-10" value="&lt;font style=&quot;font-size: 14px;&quot;&gt;Mapa de temperatura media anual de la zona de estudio&lt;/font&gt;" style="shape=parallelogram;perimeter=parallelogramPerimeter;whiteSpace=wrap;html=1;fixedSize=1;" parent="1" vertex="1">
          <mxGeometry x="56" y="820" width="200" height="80" as="geometry" />
        </mxCell>
        <mxCell id="zE25ennqfASYhB-I0x3o-4" value="" style="edgeStyle=orthogonalEdgeStyle;rounded=0;orthogonalLoop=1;jettySize=auto;html=1;" parent="1" source="zE25ennqfASYhB-I0x3o-1" target="zE25ennqfASYhB-I0x3o-3" edge="1">
          <mxGeometry relative="1" as="geometry" />
        </mxCell>
        <mxCell id="zE25ennqfASYhB-I0x3o-1" value="&lt;span style=&quot;font-family: Helvetica, arial, sans-serif; font-size: 14px; text-align: left; background-color: rgb(255, 255, 255);&quot;&gt;Convertimos la tabla importada a un objeto geográfico tipo sf&lt;/span&gt;" style="rhombus;whiteSpace=wrap;html=1;" parent="1" vertex="1">
          <mxGeometry x="-251" y="75" width="170" height="160" as="geometry" />
        </mxCell>
        <mxCell id="zE25ennqfASYhB-I0x3o-6" value="" style="edgeStyle=orthogonalEdgeStyle;rounded=0;orthogonalLoop=1;jettySize=auto;html=1;" parent="1" source="zE25ennqfASYhB-I0x3o-3" target="zE25ennqfASYhB-I0x3o-5" edge="1">
          <mxGeometry relative="1" as="geometry" />
        </mxCell>
        <mxCell id="zE25ennqfASYhB-I0x3o-3" value="&lt;div style=&quot;&quot;&gt;&lt;font face=&quot;Helvetica, arial, sans-serif&quot;&gt;&lt;span style=&quot;font-size: 14px;&quot;&gt;Creamos una malla de 250 metros con la extensión y sistema de coordenadas de la capa de presencias&lt;/span&gt;&lt;/font&gt;&lt;/div&gt;" style="rhombus;whiteSpace=wrap;html=1;align=center;" parent="1" vertex="1">
          <mxGeometry x="-61" y="75" width="170" height="160" as="geometry" />
        </mxCell>
        <mxCell id="zE25ennqfASYhB-I0x3o-8" value="" style="edgeStyle=orthogonalEdgeStyle;rounded=0;orthogonalLoop=1;jettySize=auto;html=1;" parent="1" source="zE25ennqfASYhB-I0x3o-5" target="zE25ennqfASYhB-I0x3o-7" edge="1">
          <mxGeometry relative="1" as="geometry" />
        </mxCell>
        <mxCell id="zE25ennqfASYhB-I0x3o-5" value="&lt;div style=&quot;&quot;&gt;&lt;div style=&quot;&quot;&gt;&lt;span style=&quot;font-family: Helvetica, arial, sans-serif; font-size: 14px; background-color: rgb(255, 255, 255);&quot;&gt;Asignamos a cada punto de presencia el código del cuadrado de la malla en el que está. Unión espacial.&lt;/span&gt;&lt;font face=&quot;Helvetica, arial, sans-serif&quot;&gt;&lt;span style=&quot;font-size: 14px;&quot;&gt;&lt;br&gt;&lt;/span&gt;&lt;/font&gt;&lt;/div&gt;&lt;/div&gt;" style="rhombus;whiteSpace=wrap;html=1;align=center;" parent="1" vertex="1">
          <mxGeometry x="129" y="75" width="170" height="160" as="geometry" />
        </mxCell>
        <mxCell id="zE25ennqfASYhB-I0x3o-10" value="" style="edgeStyle=orthogonalEdgeStyle;rounded=0;orthogonalLoop=1;jettySize=auto;html=1;" parent="1" source="zE25ennqfASYhB-I0x3o-7" target="zE25ennqfASYhB-I0x3o-9" edge="1">
          <mxGeometry relative="1" as="geometry" />
        </mxCell>
        <mxCell id="zE25ennqfASYhB-I0x3o-7" value="&lt;div style=&quot;&quot;&gt;&lt;div style=&quot;&quot;&gt;&lt;span style=&quot;font-family: Helvetica, arial, sans-serif; font-size: 14px; text-align: left; background-color: rgb(255, 255, 255);&quot;&gt;Calcular el número de individuos por especie y por cuadrícula.&lt;/span&gt;&lt;font face=&quot;Helvetica, arial, sans-serif&quot;&gt;&lt;span style=&quot;font-size: 14px;&quot;&gt;&lt;br&gt;&lt;/span&gt;&lt;/font&gt;&lt;/div&gt;&lt;/div&gt;" style="rhombus;whiteSpace=wrap;html=1;align=center;" parent="1" vertex="1">
          <mxGeometry x="319" y="75" width="170" height="160" as="geometry" />
        </mxCell>
        <mxCell id="zE25ennqfASYhB-I0x3o-119" style="edgeStyle=orthogonalEdgeStyle;rounded=0;orthogonalLoop=1;jettySize=auto;html=1;entryX=0;entryY=0.5;entryDx=0;entryDy=0;" parent="1" source="zE25ennqfASYhB-I0x3o-9" target="zE25ennqfASYhB-I0x3o-11" edge="1">
          <mxGeometry relative="1" as="geometry" />
        </mxCell>
        <mxCell id="zE25ennqfASYhB-I0x3o-9" value="&lt;div style=&quot;&quot;&gt;&lt;div style=&quot;&quot;&gt;&lt;span style=&quot;font-family: Helvetica, arial, sans-serif; font-size: 14px; text-align: left; background-color: rgb(255, 255, 255);&quot;&gt;Calcular el número total de individuos por cuadrícula.&lt;/span&gt;&lt;font face=&quot;Helvetica, arial, sans-serif&quot;&gt;&lt;span style=&quot;font-size: 14px;&quot;&gt;&lt;br&gt;&lt;/span&gt;&lt;/font&gt;&lt;/div&gt;&lt;/div&gt;" style="rhombus;whiteSpace=wrap;html=1;align=center;" parent="1" vertex="1">
          <mxGeometry x="509" y="75" width="170" height="160" as="geometry" />
        </mxCell>
        <mxCell id="zE25ennqfASYhB-I0x3o-121" value="" style="edgeStyle=orthogonalEdgeStyle;rounded=0;orthogonalLoop=1;jettySize=auto;html=1;" parent="1" source="zE25ennqfASYhB-I0x3o-11" target="zE25ennqfASYhB-I0x3o-120" edge="1">
          <mxGeometry relative="1" as="geometry" />
        </mxCell>
        <mxCell id="zE25ennqfASYhB-I0x3o-11" value="&lt;div style=&quot;&quot;&gt;&lt;div style=&quot;&quot;&gt;&lt;span style=&quot;font-family: Helvetica, arial, sans-serif; font-size: 14px; text-align: left; background-color: rgb(255, 255, 255);&quot;&gt;Calcular la proporción de individuos (&lt;/span&gt;&lt;em style=&quot;-webkit-print-color-adjust: exact; margin-top: 0px; font-family: Helvetica, arial, sans-serif; font-size: 14px; text-align: left; background-color: rgb(255, 255, 255);&quot;&gt;pi&lt;/em&gt;&lt;span style=&quot;font-family: Helvetica, arial, sans-serif; font-size: 14px; text-align: left; background-color: rgb(255, 255, 255);&quot;&gt;) por especie y por cuadrícula.&lt;/span&gt;&lt;font face=&quot;Helvetica, arial, sans-serif&quot;&gt;&lt;span style=&quot;font-size: 14px;&quot;&gt;&lt;br&gt;&lt;/span&gt;&lt;/font&gt;&lt;/div&gt;&lt;/div&gt;" style="rhombus;whiteSpace=wrap;html=1;align=center;" parent="1" vertex="1">
          <mxGeometry x="699" y="75" width="170" height="160" as="geometry" />
        </mxCell>
        <mxCell id="zE25ennqfASYhB-I0x3o-123" value="" style="edgeStyle=orthogonalEdgeStyle;rounded=0;orthogonalLoop=1;jettySize=auto;html=1;" parent="1" source="zE25ennqfASYhB-I0x3o-120" target="zE25ennqfASYhB-I0x3o-122" edge="1">
          <mxGeometry relative="1" as="geometry" />
        </mxCell>
        <mxCell id="zE25ennqfASYhB-I0x3o-120" value="&lt;div style=&quot;&quot;&gt;&lt;div style=&quot;&quot;&gt;&lt;span style=&quot;font-family: Helvetica, arial, sans-serif; font-size: 14px; text-align: left; background-color: rgb(255, 255, 255);&quot;&gt;Calcular el&amp;nbsp;&lt;/span&gt;&lt;em style=&quot;-webkit-print-color-adjust: exact; margin-top: 0px; font-family: Helvetica, arial, sans-serif; font-size: 14px; text-align: left; background-color: rgb(255, 255, 255);&quot;&gt;log2 pi&lt;/em&gt;&lt;span style=&quot;font-family: Helvetica, arial, sans-serif; font-size: 14px; text-align: left; background-color: rgb(255, 255, 255);&quot;&gt;&amp;nbsp;por especie y por cuadrícula.&lt;/span&gt;&lt;font face=&quot;Helvetica, arial, sans-serif&quot;&gt;&lt;span style=&quot;font-size: 14px;&quot;&gt;&lt;br&gt;&lt;/span&gt;&lt;/font&gt;&lt;/div&gt;&lt;/div&gt;" style="rhombus;whiteSpace=wrap;html=1;align=center;" parent="1" vertex="1">
          <mxGeometry x="889" y="75" width="170" height="160" as="geometry" />
        </mxCell>
        <mxCell id="zE25ennqfASYhB-I0x3o-125" value="" style="edgeStyle=orthogonalEdgeStyle;rounded=0;orthogonalLoop=1;jettySize=auto;html=1;" parent="1" source="zE25ennqfASYhB-I0x3o-122" target="zE25ennqfASYhB-I0x3o-124" edge="1">
          <mxGeometry relative="1" as="geometry" />
        </mxCell>
        <mxCell id="zE25ennqfASYhB-I0x3o-122" value="&lt;div style=&quot;&quot;&gt;&lt;div style=&quot;&quot;&gt;&lt;span style=&quot;font-family: Helvetica, arial, sans-serif; font-size: 14px; text-align: left; background-color: rgb(255, 255, 255);&quot;&gt;Calcular H por cuadrícula.&lt;/span&gt;&lt;font face=&quot;Helvetica, arial, sans-serif&quot;&gt;&lt;span style=&quot;font-size: 14px;&quot;&gt;&lt;br&gt;&lt;/span&gt;&lt;/font&gt;&lt;/div&gt;&lt;/div&gt;" style="rhombus;whiteSpace=wrap;html=1;align=center;" parent="1" vertex="1">
          <mxGeometry x="1079" y="75" width="170" height="160" as="geometry" />
        </mxCell>
        <mxCell id="CzqLKFN_9eyNsbh-GQo_-9" style="edgeStyle=orthogonalEdgeStyle;rounded=0;orthogonalLoop=1;jettySize=auto;html=1;entryX=0;entryY=0.5;entryDx=0;entryDy=0;" edge="1" parent="1" source="zE25ennqfASYhB-I0x3o-124" target="zE25ennqfASYhB-I0x3o-126">
          <mxGeometry relative="1" as="geometry" />
        </mxCell>
        <mxCell id="zE25ennqfASYhB-I0x3o-124" value="&lt;div style=&quot;&quot;&gt;&lt;div style=&quot;&quot;&gt;&lt;span style=&quot;font-family: Helvetica, arial, sans-serif; font-size: 14px; text-align: left; background-color: rgb(255, 255, 255);&quot;&gt;Exportamos la capa de la malla obtenida a un fichero de formas para visualizarlo en QGIS.&lt;/span&gt;&lt;font face=&quot;Helvetica, arial, sans-serif&quot;&gt;&lt;span style=&quot;font-size: 14px;&quot;&gt;&lt;br&gt;&lt;/span&gt;&lt;/font&gt;&lt;/div&gt;&lt;/div&gt;" style="rhombus;whiteSpace=wrap;html=1;align=center;" parent="1" vertex="1">
          <mxGeometry x="1269" y="75" width="170" height="160" as="geometry" />
        </mxCell>
        <mxCell id="zE25ennqfASYhB-I0x3o-126" value="&lt;font style=&quot;font-size: 14px;&quot;&gt;Mapa con la representación&lt;/font&gt;&lt;div&gt;&lt;font style=&quot;font-size: 14px;&quot;&gt;del índice de riqueza (Shannon)&lt;/font&gt;&lt;/div&gt;" style="shape=parallelogram;perimeter=parallelogramPerimeter;whiteSpace=wrap;html=1;fixedSize=1;" parent="1" vertex="1">
          <mxGeometry x="1449" y="110" width="231" height="90" as="geometry" />
        </mxCell>
        <mxCell id="CzqLKFN_9eyNsbh-GQo_-5" style="edgeStyle=orthogonalEdgeStyle;rounded=0;orthogonalLoop=1;jettySize=auto;html=1;entryX=0;entryY=0.5;entryDx=0;entryDy=0;" edge="1" parent="1" source="CzqLKFN_9eyNsbh-GQo_-1" target="CzqLKFN_9eyNsbh-GQo_-2">
          <mxGeometry relative="1" as="geometry" />
        </mxCell>
        <mxCell id="CzqLKFN_9eyNsbh-GQo_-1" value="&lt;font style=&quot;font-size: 14px;&quot;&gt;Definir función del&lt;/font&gt;&lt;div&gt;&lt;font style=&quot;font-size: 14px;&quot;&gt;cálculo&amp;nbsp;&lt;/font&gt;&lt;span style=&quot;font-size: 14px; background-color: initial;&quot;&gt;del LSWI con las&lt;/span&gt;&lt;/div&gt;&lt;div&gt;&lt;span style=&quot;font-size: 14px; background-color: initial;&quot;&gt;bandas del infrarrojo cercano&lt;/span&gt;&lt;/div&gt;&lt;div&gt;&lt;span style=&quot;font-size: 14px; background-color: initial;&quot;&gt;y el IR de onda corta&lt;/span&gt;&lt;/div&gt;" style="rhombus;whiteSpace=wrap;html=1;" vertex="1" parent="1">
          <mxGeometry x="-292.5" y="258.5" width="225" height="161" as="geometry" />
        </mxCell>
        <mxCell id="CzqLKFN_9eyNsbh-GQo_-6" style="edgeStyle=orthogonalEdgeStyle;rounded=0;orthogonalLoop=1;jettySize=auto;html=1;entryX=0;entryY=0.5;entryDx=0;entryDy=0;" edge="1" parent="1" source="CzqLKFN_9eyNsbh-GQo_-2" target="CzqLKFN_9eyNsbh-GQo_-4">
          <mxGeometry relative="1" as="geometry" />
        </mxCell>
        <mxCell id="CzqLKFN_9eyNsbh-GQo_-2" value="&lt;span style=&quot;font-size: 14px;&quot;&gt;Aplicar la función&lt;/span&gt;&lt;br&gt;&lt;div&gt;&lt;font style=&quot;font-size: 14px;&quot;&gt;para cada imagen en la colección de imágenes de satélite&lt;/font&gt;&lt;/div&gt;" style="rhombus;whiteSpace=wrap;html=1;" vertex="1" parent="1">
          <mxGeometry x="-36.5" y="259.5" width="204" height="160" as="geometry" />
        </mxCell>
        <mxCell id="CzqLKFN_9eyNsbh-GQo_-4" value="&lt;span style=&quot;font-size: 14px;&quot;&gt;Exportación&lt;/span&gt;&lt;div&gt;&lt;span style=&quot;font-size: 14px;&quot;&gt;del&amp;nbsp;&lt;/span&gt;&lt;span style=&quot;font-size: 14px; background-color: initial;&quot;&gt;mapa ráster resultante&lt;/span&gt;&lt;/div&gt;" style="rhombus;whiteSpace=wrap;html=1;" vertex="1" parent="1">
          <mxGeometry x="197.5" y="269.5" width="140" height="140" as="geometry" />
        </mxCell>
        <mxCell id="CzqLKFN_9eyNsbh-GQo_-8" value="&lt;b&gt;&lt;font style=&quot;font-size: 14px;&quot;&gt;Google Earth Engine&lt;/font&gt;&lt;/b&gt;" style="text;html=1;strokeColor=none;fillColor=none;align=center;verticalAlign=middle;whiteSpace=wrap;rounded=0;" vertex="1" parent="1">
          <mxGeometry x="-500" y="310" width="230" height="30" as="geometry" />
        </mxCell>
        <mxCell id="CzqLKFN_9eyNsbh-GQo_-13" value="&lt;font style=&quot;font-size: 14px;&quot;&gt;Es necesario aplicar tratamientos silvícolas a los pinares con mayor densidad&lt;/font&gt;" style="text;html=1;strokeColor=none;fillColor=none;align=center;verticalAlign=middle;whiteSpace=wrap;rounded=0;" vertex="1" parent="1">
          <mxGeometry x="275" y="-847.5" width="279" height="30" as="geometry" />
        </mxCell>
        <mxCell id="CzqLKFN_9eyNsbh-GQo_-18" value="" style="shape=flexArrow;endArrow=classic;html=1;rounded=0;fillColor=#e51400;strokeColor=#B20000;width=34.285714285714285;endSize=12.057142857142857;endWidth=42.44897959183674;" edge="1" parent="1">
          <mxGeometry width="50" height="50" relative="1" as="geometry">
            <mxPoint x="775" y="57.5" as="sourcePoint" />
            <mxPoint x="842.5" y="-12.5" as="targetPoint" />
          </mxGeometry>
        </mxCell>
        <mxCell id="CzqLKFN_9eyNsbh-GQo_-23" style="edgeStyle=orthogonalEdgeStyle;rounded=0;orthogonalLoop=1;jettySize=auto;html=1;entryX=0;entryY=0.5;entryDx=0;entryDy=0;" edge="1" parent="1" source="CzqLKFN_9eyNsbh-GQo_-20" target="CzqLKFN_9eyNsbh-GQo_-22">
          <mxGeometry relative="1" as="geometry" />
        </mxCell>
        <mxCell id="CzqLKFN_9eyNsbh-GQo_-20" value="&lt;span style=&quot;font-size: 14px;&quot;&gt;Presencia de pinar de repoblación&lt;/span&gt;" style="shape=parallelogram;perimeter=parallelogramPerimeter;whiteSpace=wrap;html=1;fixedSize=1;" vertex="1" parent="1">
          <mxGeometry x="-221.5" y="-510" width="185" height="60" as="geometry" />
        </mxCell>
        <mxCell id="CzqLKFN_9eyNsbh-GQo_-22" value="&lt;font style=&quot;font-size: 14px;&quot;&gt;Solo se puede actuar sobre parches de vegetación de pinar de repoblación&lt;/font&gt;" style="text;html=1;strokeColor=none;fillColor=none;align=center;verticalAlign=middle;whiteSpace=wrap;rounded=0;" vertex="1" parent="1">
          <mxGeometry x="-16.5" y="-495" width="256.5" height="30" as="geometry" />
        </mxCell>
      </root>
    </mxGraphModel>
  </diagram>
</mxfile>
